<svg width="57" height="57" viewBox="0 0 57 57" fill="none" xmlns="http://www.w3.org/2000/svg">
<g filter="url(#filter0_d_117_47)">
<path d="M37.0879 24.1502C37.0879 26.2281 36.9755 28.2312 36.779 30.1406H19.4255C19.2196 28.2312 19.1166 26.2281 19.1166 24.1502C19.1166 22.0723 19.2289 20.0692 19.4255 18.1598H36.779C36.9849 20.0692 37.0879 22.0723 37.0879 24.1502ZM39.7835 18.1598H51.3057C51.8018 20.0786 52.0639 22.0816 52.0639 24.1502C52.0639 26.2188 51.8018 28.2218 51.3057 30.1406H39.7835C39.9801 28.2124 40.0831 26.2094 40.0831 24.1502C40.0831 22.091 39.9801 20.0879 39.7835 18.1598ZM50.3229 15.1646H39.3998C38.4638 9.18352 36.6105 4.17591 34.2237 0.97478C41.5526 2.9123 47.5149 8.2288 50.3136 15.1646H50.3229ZM36.3671 15.1646H19.8373C20.4083 11.7575 21.2881 8.7436 22.3645 6.30063C23.3473 4.09167 24.4425 2.4911 25.5001 1.48022C26.5485 0.488058 27.4189 0.188538 28.1022 0.188538C28.7855 0.188538 29.656 0.488058 30.7043 1.48022C31.762 2.4911 32.8571 4.09167 33.8399 6.30063C34.9257 8.73424 35.7962 11.7482 36.3671 15.1646ZM16.8047 15.1646H5.88153C8.68954 8.2288 14.6425 2.9123 21.9808 0.97478C19.594 4.17591 17.7407 9.18352 16.8047 15.1646ZM4.89873 18.1598H16.4209C16.2244 20.0879 16.1214 22.091 16.1214 24.1502C16.1214 26.2094 16.2244 28.2124 16.4209 30.1406H4.89873C4.40264 28.2218 4.14056 26.2188 4.14056 24.1502C4.14056 22.0816 4.40264 20.0786 4.89873 18.1598ZM22.3645 41.9904C21.2788 39.5568 20.4083 36.5429 19.8373 33.1358H36.3671C35.7962 36.5429 34.9163 39.5568 33.8399 41.9904C32.8571 44.1994 31.762 45.7999 30.7043 46.8108C29.656 47.8123 28.7855 48.1119 28.1022 48.1119C27.4189 48.1119 26.5485 47.8123 25.5001 46.8202C24.4425 45.8093 23.3473 44.2087 22.3645 41.9998V41.9904ZM16.8047 33.1358C17.7407 39.1169 19.594 44.1245 21.9808 47.3256C14.6425 45.3881 8.68954 40.0716 5.88153 33.1358H16.8047ZM50.3229 33.1358C47.5149 40.0716 41.5619 45.3881 34.233 47.3256C36.6199 44.1245 38.4638 39.1169 39.4091 33.1358H50.3229Z" fill="white"/>
</g>
<defs>
<filter id="filter0_d_117_47" x="0.140564" y="0.188538" width="55.9233" height="55.9233" filterUnits="userSpaceOnUse" color-interpolation-filters="sRGB">
<feFlood flood-opacity="0" result="BackgroundImageFix"/>
<feColorMatrix in="SourceAlpha" type="matrix" values="0 0 0 0 0 0 0 0 0 0 0 0 0 0 0 0 0 0 127 0" result="hardAlpha"/>
<feOffset dy="4"/>
<feGaussianBlur stdDeviation="2"/>
<feComposite in2="hardAlpha" operator="out"/>
<feColorMatrix type="matrix" values="0 0 0 0 0 0 0 0 0 0 0 0 0 0 0 0 0 0 0.25 0"/>
<feBlend mode="normal" in2="BackgroundImageFix" result="effect1_dropShadow_117_47"/>
<feBlend mode="normal" in="SourceGraphic" in2="effect1_dropShadow_117_47" result="shape"/>
</filter>
</defs>
</svg>
